<svg width="28" height="28" viewBox="0 0 28 28" fill="none" xmlns="http://www.w3.org/2000/svg">
<g filter="url(#filter0_d_4_2568)">
<path d="M8.97414 19.4507C7.89957 19.4493 6.86642 19.0361 6.08727 18.2961C5.30812 17.556 4.84225 16.5455 4.78552 15.4725C4.7288 14.3994 5.08552 13.3454 5.78231 12.5273C6.47909 11.7093 7.46291 11.1894 8.53134 11.0747C8.21674 9.841 8.40513 8.53282 9.05506 7.43798C9.70498 6.34314 10.7632 5.55133 11.9969 5.23673C13.2307 4.92213 14.5389 5.11052 15.6337 5.76044C16.7285 6.41037 17.5203 7.4686 17.8349 8.70233C18.5687 8.60017 19.3156 8.65007 20.0292 8.84893C20.7428 9.04779 21.4079 9.39136 21.9831 9.85827C22.5582 10.3252 23.0312 10.9054 23.3724 11.5629C23.7137 12.2205 23.9161 12.9412 23.9669 13.6802C24.0178 14.4193 23.916 15.1609 23.6679 15.859C23.4198 16.557 23.0308 17.1966 22.525 17.7378C22.0191 18.2791 21.4074 18.7104 20.7277 19.0051C20.048 19.2998 19.315 19.4515 18.5741 19.4507H8.97414Z" fill="#296399"/>
</g>
<defs>
<filter id="filter0_d_4_2568" x="-1.62585" y="0.250732" width="32" height="32" filterUnits="userSpaceOnUse" color-interpolation-filters="sRGB">
<feFlood flood-opacity="0" result="BackgroundImageFix"/>
<feColorMatrix in="SourceAlpha" type="matrix" values="0 0 0 0 0 0 0 0 0 0 0 0 0 0 0 0 0 0 127 0" result="hardAlpha"/>
<feOffset dy="4"/>
<feGaussianBlur stdDeviation="2"/>
<feComposite in2="hardAlpha" operator="out"/>
<feColorMatrix type="matrix" values="0 0 0 0 0 0 0 0 0 0 0 0 0 0 0 0 0 0 0.25 0"/>
<feBlend mode="normal" in2="BackgroundImageFix" result="effect1_dropShadow_4_2568"/>
<feBlend mode="normal" in="SourceGraphic" in2="effect1_dropShadow_4_2568" result="shape"/>
</filter>
</defs>
</svg>
