<svg width="20" height="18" viewBox="0 0 20 18" fill="none" xmlns="http://www.w3.org/2000/svg">
<path d="M7.88676 6.85607H1.42741C1.28855 6.85607 1.15114 6.82861 1.02293 6.77528C0.894727 6.72195 0.778316 6.64381 0.680425 6.54533C0.582534 6.44685 0.504954 6.32998 0.452395 6.20145C0.399836 6.07293 0.373328 5.93528 0.374165 5.79643C0.373328 5.65757 0.399836 5.51993 0.452395 5.3914C0.504954 5.26287 0.582534 5.146 0.680425 5.04752C0.778316 4.94903 0.894727 4.87088 1.02293 4.81755C1.15114 4.76422 1.28855 4.73678 1.42741 4.73678H7.88676C8.20036 4.73679 8.50126 4.61263 8.7236 4.39148C8.94594 4.17033 9.07171 3.87016 9.07339 3.55657C9.07339 3.24188 8.94829 2.94009 8.72576 2.71757C8.50324 2.49504 8.20146 2.37002 7.88676 2.37002H5.93255C5.65152 2.37002 5.38197 2.25838 5.18324 2.05966C4.98452 1.86093 4.8728 1.59142 4.8728 1.31039C4.8728 1.02935 4.98452 0.75982 5.18324 0.561098C5.38197 0.362376 5.65152 0.250732 5.93255 0.250732H7.88676C8.76243 0.252413 9.60176 0.601452 10.2204 1.22123C10.8389 1.84102 11.1864 2.6809 11.1864 3.55657C11.1847 4.43113 10.8364 5.2694 10.218 5.88781C9.59962 6.50623 8.76133 6.85439 7.88676 6.85607V6.85607Z" fill="#296399"/>
<path d="M15.628 9.90809H1.42741C1.28855 9.90809 1.15114 9.88064 1.02293 9.82731C0.894727 9.77398 0.778316 9.69582 0.680425 9.59734C0.582534 9.49886 0.504954 9.38199 0.452395 9.25347C0.399836 9.12494 0.373328 8.9873 0.374165 8.84844C0.373328 8.70959 0.399836 8.57194 0.452395 8.44341C0.504954 8.31489 0.582534 8.19802 0.680425 8.09954C0.778316 8.00106 0.894727 7.9229 1.02293 7.86957C1.15114 7.81624 1.28855 7.78879 1.42741 7.7888H15.628C15.9786 7.7888 16.3148 7.64995 16.5634 7.40262C16.8119 7.15529 16.9524 6.81961 16.9541 6.469C16.9524 6.11838 16.8119 5.7827 16.5634 5.53537C16.3148 5.28804 15.9786 5.14919 15.628 5.1492H13.8132C13.5322 5.1492 13.2626 5.03755 13.0639 4.83883C12.8652 4.64011 12.7536 4.37058 12.7536 4.08954C12.7536 3.95039 12.7809 3.81261 12.8342 3.68404C12.8874 3.55548 12.9655 3.43867 13.0639 3.34027C13.1623 3.24188 13.2791 3.16381 13.4077 3.11056C13.5362 3.05731 13.6741 3.02991 13.8132 3.02991H15.6596C16.1112 3.02991 16.5585 3.11886 16.9757 3.29169C17.393 3.46452 17.7721 3.71783 18.0914 4.03718C18.4108 4.35653 18.6642 4.73567 18.837 5.15292C19.0098 5.57017 19.0988 6.01737 19.0988 6.469C19.0988 6.92331 19.0087 7.37312 18.8339 7.79245C18.6591 8.21178 18.403 8.59231 18.0803 8.91208C17.7575 9.23185 17.3747 9.48451 16.9537 9.65546C16.5328 9.82642 16.0823 9.91228 15.628 9.90809V9.90809Z" fill="#296399"/>
<path d="M9.89829 17.5223H7.21429C6.93326 17.5223 6.66371 17.4107 6.46498 17.212C6.26626 17.0132 6.15454 16.7437 6.15454 16.4627C6.15454 16.3238 6.18207 16.1863 6.2354 16.0581C6.28873 15.9299 6.36681 15.8135 6.46529 15.7156C6.56377 15.6177 6.68067 15.5403 6.8092 15.4877C6.93772 15.4352 7.07544 15.4086 7.21429 15.4094H9.89829C10.222 15.4077 10.5318 15.278 10.7601 15.0485C10.9884 14.819 11.1165 14.5085 11.1165 14.1848C11.1165 13.8617 10.9882 13.5518 10.7598 13.3233C10.5313 13.0948 10.2214 12.9665 9.89829 12.9665H1.42741C1.14806 12.9665 0.880126 12.8555 0.682594 12.658C0.485062 12.4605 0.374165 12.1925 0.374165 11.9132C0.373328 11.7743 0.399836 11.6367 0.452395 11.5082C0.504954 11.3796 0.582534 11.2628 0.680425 11.1643C0.778317 11.0658 0.894727 10.9877 1.02293 10.9343C1.15114 10.881 1.28855 10.8535 1.42741 10.8535H9.89829C10.7824 10.8535 11.6303 11.2043 12.256 11.8289C12.8818 12.4534 13.2342 13.3007 13.2359 14.1848C13.2342 15.0694 12.8819 15.9174 12.2564 16.5429C11.6308 17.1685 10.783 17.5207 9.89829 17.5223V17.5223Z" fill="#296399"/>
</svg>
